<mxfile host="app.diagrams.net" modified="2022-10-15T12:57:12.797Z" agent="5.0 (Macintosh; Intel Mac OS X 10_15_7) AppleWebKit/537.36 (KHTML, like Gecko) Chrome/106.0.0.0 Safari/537.36" etag="KX0nghHVhxHqo1ohVt2U" version="20.3.0" type="github">
  <diagram id="C5RBs43oDa-KdzZeNtuy" name="Page-1">
    <mxGraphModel dx="946" dy="589" grid="1" gridSize="10" guides="1" tooltips="1" connect="1" arrows="1" fold="1" page="1" pageScale="1" pageWidth="827" pageHeight="1169" math="0" shadow="0">
      <root>
        <mxCell id="WIyWlLk6GJQsqaUBKTNV-0" />
        <mxCell id="WIyWlLk6GJQsqaUBKTNV-1" parent="WIyWlLk6GJQsqaUBKTNV-0" />
        <mxCell id="qz7tzYVWzuwUDLUNLnIT-8" value="Livro" style="swimlane;fontStyle=1;align=center;verticalAlign=top;childLayout=stackLayout;horizontal=1;startSize=26;horizontalStack=0;resizeParent=1;resizeParentMax=0;resizeLast=0;collapsible=1;marginBottom=0;" vertex="1" parent="WIyWlLk6GJQsqaUBKTNV-1">
          <mxGeometry x="580" y="60" width="160" height="240" as="geometry" />
        </mxCell>
        <mxCell id="qz7tzYVWzuwUDLUNLnIT-9" value="+ titulo: String&#xa;+ autor: Pessoa[ ]&#xa;+ categoria: String&#xa;+ capitulo: Capitulo[ ]" style="text;strokeColor=none;fillColor=none;align=left;verticalAlign=top;spacingLeft=4;spacingRight=4;overflow=hidden;rotatable=0;points=[[0,0.5],[1,0.5]];portConstraint=eastwest;" vertex="1" parent="qz7tzYVWzuwUDLUNLnIT-8">
          <mxGeometry y="26" width="160" height="84" as="geometry" />
        </mxCell>
        <mxCell id="qz7tzYVWzuwUDLUNLnIT-10" value="" style="line;strokeWidth=1;fillColor=none;align=left;verticalAlign=middle;spacingTop=-1;spacingLeft=3;spacingRight=3;rotatable=0;labelPosition=right;points=[];portConstraint=eastwest;strokeColor=inherit;" vertex="1" parent="qz7tzYVWzuwUDLUNLnIT-8">
          <mxGeometry y="110" width="160" height="18" as="geometry" />
        </mxCell>
        <mxCell id="qz7tzYVWzuwUDLUNLnIT-11" value="+ getTitulo&#xa;+ getAutores()&#xa;+ getCategoria&#xa;+ setTitulo&#xa;+ addAutor&#xa;+ setCategoria&#xa;+ addCapitulo" style="text;strokeColor=none;fillColor=none;align=left;verticalAlign=top;spacingLeft=4;spacingRight=4;overflow=hidden;rotatable=0;points=[[0,0.5],[1,0.5]];portConstraint=eastwest;" vertex="1" parent="qz7tzYVWzuwUDLUNLnIT-8">
          <mxGeometry y="128" width="160" height="112" as="geometry" />
        </mxCell>
        <mxCell id="qz7tzYVWzuwUDLUNLnIT-12" value="Autor" style="swimlane;fontStyle=1;align=center;verticalAlign=top;childLayout=stackLayout;horizontal=1;startSize=26;horizontalStack=0;resizeParent=1;resizeParentMax=0;resizeLast=0;collapsible=1;marginBottom=0;" vertex="1" parent="WIyWlLk6GJQsqaUBKTNV-1">
          <mxGeometry x="230" y="170" width="160" height="100" as="geometry" />
        </mxCell>
        <mxCell id="qz7tzYVWzuwUDLUNLnIT-13" value="+ livro: Livro[ ]" style="text;strokeColor=none;fillColor=none;align=left;verticalAlign=top;spacingLeft=4;spacingRight=4;overflow=hidden;rotatable=0;points=[[0,0.5],[1,0.5]];portConstraint=eastwest;" vertex="1" parent="qz7tzYVWzuwUDLUNLnIT-12">
          <mxGeometry y="26" width="160" height="26" as="geometry" />
        </mxCell>
        <mxCell id="qz7tzYVWzuwUDLUNLnIT-14" value="" style="line;strokeWidth=1;fillColor=none;align=left;verticalAlign=middle;spacingTop=-1;spacingLeft=3;spacingRight=3;rotatable=0;labelPosition=right;points=[];portConstraint=eastwest;strokeColor=inherit;" vertex="1" parent="qz7tzYVWzuwUDLUNLnIT-12">
          <mxGeometry y="52" width="160" height="8" as="geometry" />
        </mxCell>
        <mxCell id="qz7tzYVWzuwUDLUNLnIT-15" value="+ getLivros()&#xa;+ addLivro(Livro livro)" style="text;strokeColor=none;fillColor=none;align=left;verticalAlign=top;spacingLeft=4;spacingRight=4;overflow=hidden;rotatable=0;points=[[0,0.5],[1,0.5]];portConstraint=eastwest;" vertex="1" parent="qz7tzYVWzuwUDLUNLnIT-12">
          <mxGeometry y="60" width="160" height="40" as="geometry" />
        </mxCell>
        <mxCell id="qz7tzYVWzuwUDLUNLnIT-16" value="Emprestimo" style="swimlane;fontStyle=1;align=center;verticalAlign=top;childLayout=stackLayout;horizontal=1;startSize=26;horizontalStack=0;resizeParent=1;resizeParentMax=0;resizeLast=0;collapsible=1;marginBottom=0;" vertex="1" parent="WIyWlLk6GJQsqaUBKTNV-1">
          <mxGeometry x="480" y="320" width="320" height="180" as="geometry" />
        </mxCell>
        <mxCell id="qz7tzYVWzuwUDLUNLnIT-17" value="+ pessoa: Pessoa()&#xa;+ livro: Livro()&#xa;+ dataEmprestimo: Date()&#xa;+ dataDevolucao: Date()&#xa;+ periodoEmprestimo: dataDevolucao - dataEmprestimo" style="text;strokeColor=none;fillColor=none;align=left;verticalAlign=top;spacingLeft=4;spacingRight=4;overflow=hidden;rotatable=0;points=[[0,0.5],[1,0.5]];portConstraint=eastwest;" vertex="1" parent="qz7tzYVWzuwUDLUNLnIT-16">
          <mxGeometry y="26" width="320" height="94" as="geometry" />
        </mxCell>
        <mxCell id="qz7tzYVWzuwUDLUNLnIT-18" value="" style="line;strokeWidth=1;fillColor=none;align=left;verticalAlign=middle;spacingTop=-1;spacingLeft=3;spacingRight=3;rotatable=0;labelPosition=right;points=[];portConstraint=eastwest;strokeColor=inherit;" vertex="1" parent="qz7tzYVWzuwUDLUNLnIT-16">
          <mxGeometry y="120" width="320" height="8" as="geometry" />
        </mxCell>
        <mxCell id="qz7tzYVWzuwUDLUNLnIT-19" value="+ setEmprestimo(Pessoa pessoa, Livro livro)&#xa;+ getEmprestimos()&#xa;+ getEmprestimosPorPessoa(Pessoa pessoa)" style="text;strokeColor=none;fillColor=none;align=left;verticalAlign=top;spacingLeft=4;spacingRight=4;overflow=hidden;rotatable=0;points=[[0,0.5],[1,0.5]];portConstraint=eastwest;" vertex="1" parent="qz7tzYVWzuwUDLUNLnIT-16">
          <mxGeometry y="128" width="320" height="52" as="geometry" />
        </mxCell>
        <mxCell id="qz7tzYVWzuwUDLUNLnIT-20" value="Capitulo" style="swimlane;fontStyle=1;align=center;verticalAlign=top;childLayout=stackLayout;horizontal=1;startSize=26;horizontalStack=0;resizeParent=1;resizeParentMax=0;resizeLast=0;collapsible=1;marginBottom=0;" vertex="1" parent="WIyWlLk6GJQsqaUBKTNV-1">
          <mxGeometry x="280" y="310" width="160" height="170" as="geometry" />
        </mxCell>
        <mxCell id="qz7tzYVWzuwUDLUNLnIT-21" value="+ paginas: int&#xa;+ titulo: String&#xa;+ livro: Livro()" style="text;strokeColor=none;fillColor=none;align=left;verticalAlign=top;spacingLeft=4;spacingRight=4;overflow=hidden;rotatable=0;points=[[0,0.5],[1,0.5]];portConstraint=eastwest;" vertex="1" parent="qz7tzYVWzuwUDLUNLnIT-20">
          <mxGeometry y="26" width="160" height="54" as="geometry" />
        </mxCell>
        <mxCell id="qz7tzYVWzuwUDLUNLnIT-22" value="" style="line;strokeWidth=1;fillColor=none;align=left;verticalAlign=middle;spacingTop=-1;spacingLeft=3;spacingRight=3;rotatable=0;labelPosition=right;points=[];portConstraint=eastwest;strokeColor=inherit;" vertex="1" parent="qz7tzYVWzuwUDLUNLnIT-20">
          <mxGeometry y="80" width="160" height="10" as="geometry" />
        </mxCell>
        <mxCell id="qz7tzYVWzuwUDLUNLnIT-23" value="+ getCapitulos()&#xa;+ getCapitulos(Livro livro)&#xa;+ setPaginas()&#xa;+ setTitulo()&#xa;+ setLivro(Livro livro)" style="text;strokeColor=none;fillColor=none;align=left;verticalAlign=top;spacingLeft=4;spacingRight=4;overflow=hidden;rotatable=0;points=[[0,0.5],[1,0.5]];portConstraint=eastwest;" vertex="1" parent="qz7tzYVWzuwUDLUNLnIT-20">
          <mxGeometry y="90" width="160" height="80" as="geometry" />
        </mxCell>
        <mxCell id="qz7tzYVWzuwUDLUNLnIT-24" value="" style="endArrow=block;endFill=1;html=1;edgeStyle=orthogonalEdgeStyle;align=left;verticalAlign=top;rounded=0;exitX=1;exitY=0;exitDx=0;exitDy=0;entryX=-0.012;entryY=0.922;entryDx=0;entryDy=0;entryPerimeter=0;" edge="1" parent="WIyWlLk6GJQsqaUBKTNV-1" source="qz7tzYVWzuwUDLUNLnIT-20" target="qz7tzYVWzuwUDLUNLnIT-9">
          <mxGeometry x="-1" relative="1" as="geometry">
            <mxPoint x="380" y="391" as="sourcePoint" />
            <mxPoint x="540" y="391" as="targetPoint" />
          </mxGeometry>
        </mxCell>
        <mxCell id="qz7tzYVWzuwUDLUNLnIT-26" value="" style="endArrow=block;endFill=1;html=1;edgeStyle=orthogonalEdgeStyle;align=left;verticalAlign=top;rounded=0;exitX=1;exitY=0;exitDx=0;exitDy=0;entryX=0;entryY=0.5;entryDx=0;entryDy=0;" edge="1" parent="WIyWlLk6GJQsqaUBKTNV-1" source="qz7tzYVWzuwUDLUNLnIT-12" target="qz7tzYVWzuwUDLUNLnIT-9">
          <mxGeometry x="-1" relative="1" as="geometry">
            <mxPoint x="470" y="451" as="sourcePoint" />
            <mxPoint x="630" y="451" as="targetPoint" />
            <Array as="points">
              <mxPoint x="430" y="180" />
              <mxPoint x="410" y="180" />
              <mxPoint x="410" y="170" />
              <mxPoint x="395" y="170" />
              <mxPoint x="395" y="118" />
            </Array>
          </mxGeometry>
        </mxCell>
        <mxCell id="qz7tzYVWzuwUDLUNLnIT-28" value="Pessoa" style="swimlane;fontStyle=1;align=center;verticalAlign=top;childLayout=stackLayout;horizontal=1;startSize=26;horizontalStack=0;resizeParent=1;resizeParentMax=0;resizeLast=0;collapsible=1;marginBottom=0;" vertex="1" parent="WIyWlLk6GJQsqaUBKTNV-1">
          <mxGeometry x="40" y="30" width="180" height="170" as="geometry" />
        </mxCell>
        <mxCell id="qz7tzYVWzuwUDLUNLnIT-29" value="+ nome: String&#xa;+ livrosEmprestados: int" style="text;strokeColor=none;fillColor=none;align=left;verticalAlign=top;spacingLeft=4;spacingRight=4;overflow=hidden;rotatable=0;points=[[0,0.5],[1,0.5]];portConstraint=eastwest;" vertex="1" parent="qz7tzYVWzuwUDLUNLnIT-28">
          <mxGeometry y="26" width="180" height="44" as="geometry" />
        </mxCell>
        <mxCell id="qz7tzYVWzuwUDLUNLnIT-30" value="" style="line;strokeWidth=1;fillColor=none;align=left;verticalAlign=middle;spacingTop=-1;spacingLeft=3;spacingRight=3;rotatable=0;labelPosition=right;points=[];portConstraint=eastwest;strokeColor=inherit;" vertex="1" parent="qz7tzYVWzuwUDLUNLnIT-28">
          <mxGeometry y="70" width="180" height="8" as="geometry" />
        </mxCell>
        <mxCell id="qz7tzYVWzuwUDLUNLnIT-31" value="+ getNome&#xa;+ setNome&#xa;+ getLivrosEmprestados&#xa;+ addLivroEmprestado(+1)&#xa;+ removeLivroEmprestado(-1)" style="text;strokeColor=none;fillColor=none;align=left;verticalAlign=top;spacingLeft=4;spacingRight=4;overflow=hidden;rotatable=0;points=[[0,0.5],[1,0.5]];portConstraint=eastwest;" vertex="1" parent="qz7tzYVWzuwUDLUNLnIT-28">
          <mxGeometry y="78" width="180" height="92" as="geometry" />
        </mxCell>
        <mxCell id="qz7tzYVWzuwUDLUNLnIT-32" value="" style="endArrow=none;html=1;edgeStyle=orthogonalEdgeStyle;rounded=0;exitX=1;exitY=0.5;exitDx=0;exitDy=0;entryX=0.5;entryY=0;entryDx=0;entryDy=0;" edge="1" parent="WIyWlLk6GJQsqaUBKTNV-1" source="qz7tzYVWzuwUDLUNLnIT-29" target="qz7tzYVWzuwUDLUNLnIT-12">
          <mxGeometry relative="1" as="geometry">
            <mxPoint x="230" y="80" as="sourcePoint" />
            <mxPoint x="390" y="80" as="targetPoint" />
          </mxGeometry>
        </mxCell>
      </root>
    </mxGraphModel>
  </diagram>
</mxfile>
